<?xml version="1.0" encoding="UTF-8" standalone="no"?>
<svg
   xmlns:dc="http://purl.org/dc/elements/1.1/"
   xmlns:cc="http://creativecommons.org/ns#"
   xmlns:rdf="http://www.w3.org/1999/02/22-rdf-syntax-ns#"
   xmlns:svg="http://www.w3.org/2000/svg"
   xmlns="http://www.w3.org/2000/svg"
   xmlns:sodipodi="http://sodipodi.sourceforge.net/DTD/sodipodi-0.dtd"
   xmlns:inkscape="http://www.inkscape.org/namespaces/inkscape"
   version="1.1"
   x="0px"
   y="0px"
   viewBox="0 0 100 120"
   xml:space="preserve"
   id="svg2"
   inkscape:version="0.91 r13725"
   sodipodi:docname="noun_1245419_cc.svg"
   width="100"
   height="120"><metadata
     id="metadata42"><rdf:RDF><cc:Work
         rdf:about=""><dc:format>image/svg+xml</dc:format><dc:type
           rdf:resource="http://purl.org/dc/dcmitype/StillImage" /><dc:title></dc:title></cc:Work></rdf:RDF></metadata><defs
     id="defs40" /><sodipodi:namedview
     pagecolor="#ffffff"
     bordercolor="#666666"
     borderopacity="1"
     objecttolerance="10"
     gridtolerance="10"
     guidetolerance="10"
     inkscape:pageopacity="0"
     inkscape:pageshadow="2"
     inkscape:window-width="1855"
     inkscape:window-height="1056"
     id="namedview38"
     showgrid="false"
     fit-margin-top="0"
     fit-margin-left="0"
     fit-margin-right="0"
     fit-margin-bottom="0"
     inkscape:showpageshadow="true"
     showborder="true"
     inkscape:zoom="3.14958"
     inkscape:cx="46.862651"
     inkscape:cy="140.11815"
     inkscape:window-x="65"
     inkscape:window-y="24"
     inkscape:window-maximized="1"
     inkscape:current-layer="svg2" /><g
     id="g4"
     transform="matrix(0.45506336,0,0,0.45506336,5.0513441,5.4429088)"><path
       d="m 70.559,109.989 c -7.593,-1.603 -18.698,2.291 -23.382,14.148 -6.334,16.34 -7.811,26.938 -5.791,44.799 2.586,12.928 12.414,14.119 20.596,13.906 0.28,-0.008 0.555,-0.016 0.825,-0.025 l 23.769,0.274 -1.16,5.062 -55.868,0 0,-68.375 -8,0 0,120 8,0 0,-9.001 46.499,0 0,9.001 8,0 0,-9.58 c 0.689,0.334 1.422,0.603 2.2,0.781 0.78,0.18 1.562,0.265 2.329,0.266 2.984,0 5.784,-1.299 7.723,-3.463 l 0,-65.331 -23.425,-0.271 c 0.192,-7.551 1.679,-15.356 3.279,-22.396 -9.044,-2.834 -14.799,-6.563 -16.383,-7.667 l -0.017,-0.01 -0.074,-0.053 c -1.946,-1.411 -3.227,-3.496 -3.606,-5.871 -0.379,-2.372 0.189,-4.751 1.601,-6.698 1.688,-2.33 4.414,-3.72 7.293,-3.72 1.906,0 3.729,0.593 5.275,1.714 l 0.065,0.039 0.179,0.119 c 0.257,0.167 0.704,0.449 1.316,0.801 1.17,0.669 3.102,1.685 5.638,2.709 4.035,1.631 10.244,3.535 17.946,3.976 -3.607,-1.385 -6.793,-3.005 -9.521,-4.634 -3.574,-2.139 -6.336,-4.279 -8.16,-5.845 -0.912,-0.782 -1.588,-1.42 -2.019,-1.84 -0.214,-0.212 -0.366,-0.366 -0.457,-0.459 -0.044,-0.047 -0.072,-0.076 -0.085,-0.09 l 0,0.001 c -1.205,-1.315 -2.799,-2.057 -4.444,-2.225 -0.049,-0.012 -0.092,-0.031 -0.141,-0.042 z m -41.011,115.455 0,-27.209 46.499,0 0,27.209 -46.499,0 z"
       id="path6"
       inkscape:connector-curvature="0" /><circle
       cx="93.714996"
       cy="93.425003"
       r="20.91"
       id="circle8" /><polygon
       points="98.298,239.444 110.799,239.444 110.799,174.111 176.299,174.111 176.299,239.444 188.799,239.444 188.799,159.61 197.549,159.61 197.549,148.944 89.548,148.944 89.548,159.61 98.298,159.61 "
       id="polygon10" /><path
       d="m 117.494,122.377 -3.269,-4.819 -1.932,1.311 2.782,4.102 c 0.409,-0.11 0.818,-0.215 1.227,-0.334 0.393,-0.115 0.792,-0.199 1.192,-0.26 z"
       id="path12"
       inkscape:connector-curvature="0" /><path
       d="m 121.334,139.914 c -4.25,1.24 -8.531,2.122 -12.809,2.665 0.069,0.008 0.141,0.014 0.21,0.021 l 0,1.819 43,0 0,-6 -23.357,0 -1.787,-2.634 c -1.12,1.934 -2.948,3.458 -5.257,4.129 z"
       id="path14"
       inkscape:connector-curvature="0" /><path
       d="m 76.69,123.002 c -2.59,-1.047 -4.584,-2.084 -5.887,-2.832 -0.65,-0.375 -1.129,-0.675 -1.422,-0.864 -0.146,-0.097 -0.247,-0.165 -0.301,-0.2 l -0.012,-0.008 c -3.13,-2.27 -7.507,-1.57 -9.776,1.56 -2.267,3.13 -1.569,7.506 1.562,9.776 l -0.002,0 c 0.688,0.471 14.959,10.743 37.838,10.784 0.007,0 0.015,0 0.021,0 6.715,0 14.142,-0.912 22.065,-3.225 3.712,-1.08 5.844,-4.964 4.764,-8.677 -1.083,-3.71 -4.968,-5.842 -8.68,-4.761 -6.632,1.93 -12.708,2.663 -18.171,2.663 -9.27,0.003 -16.812,-2.119 -21.999,-4.216 z"
       id="path16"
       inkscape:connector-curvature="0" /><path
       d="m 57.527,101.777 c -3.036,-0.023 -4.928,1.592 -5.84,3.134 -0.938,1.539 -1.084,2.99 -1.097,3.072 -0.06,0.549 0.338,1.042 0.888,1.101 0.036,0.004 0.072,0.006 0.108,0.006 0.504,0 0.937,-0.38 0.991,-0.893 l 0,-0.002 c 0,0 0.023,-0.237 0.145,-0.67 0.422,-1.345 1.375,-3.732 4.805,-3.747 0.385,0 0.805,0.031 1.262,0.101 0.545,0.084 1.056,-0.291 1.14,-0.836 0.084,-0.545 -0.291,-1.058 -0.836,-1.139 -0.554,-0.089 -1.074,-0.127 -1.566,-0.127 z"
       id="path18"
       inkscape:connector-curvature="0" /><path
       d="m 59.31,97.453 c -1.03,-0.199 -1.987,-0.289 -2.875,-0.289 -4.271,-0.019 -6.922,2.166 -8.319,4.283 -1.418,2.119 -1.742,4.16 -1.758,4.242 -0.088,0.545 0.283,1.057 0.828,1.146 0.054,0.009 0.107,0.013 0.16,0.013 0.482,0 0.906,-0.349 0.986,-0.838 l -0.002,-0.002 c 0,0 0.063,-0.389 0.279,-1.045 0.711,-2.012 2.522,-5.789 7.825,-5.797 0.752,0 1.582,0.076 2.498,0.252 0.541,0.104 1.065,-0.25 1.17,-0.793 0.105,-0.543 -0.249,-1.069 -0.792,-1.172 z"
       id="path20"
       inkscape:connector-curvature="0" /><path
       d="m 123.749,118.963 c 0.147,0.532 0.7,0.842 1.232,0.694 l 0,-0.002 c 0,0 0.106,-0.031 0.356,-0.072 0.249,-0.041 0.61,-0.082 1.027,-0.082 1.68,0.078 3.957,0.439 4.922,4.331 0.107,0.461 0.52,0.773 0.975,0.773 0.074,0 0.15,-0.008 0.228,-0.026 0.538,-0.125 0.872,-0.663 0.747,-1.199 -1.063,-4.846 -4.752,-5.959 -6.871,-5.879 -1.101,0 -1.865,0.214 -1.924,0.23 -0.532,0.147 -0.841,0.7 -0.692,1.232 z"
       id="path22"
       inkscape:connector-curvature="0" /><path
       d="m 125.444,114.901 c 0,0 0.136,-0.031 0.431,-0.07 0.297,-0.037 0.73,-0.076 1.244,-0.076 2.627,0.084 7.002,0.762 8.367,7.558 0.093,0.478 0.512,0.813 0.982,0.813 0.063,0 0.126,-0.006 0.189,-0.018 0.543,-0.104 0.898,-0.629 0.793,-1.17 -1.449,-7.847 -7.317,-9.268 -10.332,-9.182 -1.231,0 -2.059,0.183 -2.109,0.193 -0.541,0.119 -0.879,0.655 -0.758,1.195 0.12,0.537 0.655,0.878 1.193,0.757 z"
       id="path24"
       inkscape:connector-curvature="0" /><path
       d="m 93.498,64.396 c 1.029,0.006 2.25,0.365 3.717,1.656 0.412,0.367 1.044,0.331 1.41,-0.084 0.367,-0.412 0.329,-1.044 -0.083,-1.411 -1.741,-1.556 -3.499,-2.167 -5.044,-2.161 -3.357,0.043 -5.318,2.571 -5.399,2.636 -0.348,0.428 -0.283,1.059 0.148,1.407 0.185,0.15 0.408,0.223 0.63,0.223 0.291,0 0.579,-0.126 0.777,-0.37 l -0.002,0 c 0.002,0 0.072,-0.09 0.256,-0.271 0.559,-0.559 1.932,-1.641 3.59,-1.625 z"
       id="path26"
       inkscape:connector-curvature="0" /><path
       d="m 100.453,62.665 c 0.264,0 0.525,-0.103 0.723,-0.308 0.383,-0.397 0.369,-1.031 -0.029,-1.415 -2.7,-2.6 -5.412,-3.55 -7.763,-3.542 -4.591,0.035 -7.502,3.337 -7.585,3.401 -0.371,0.41 -0.341,1.041 0.068,1.413 0.41,0.371 1.044,0.34 1.415,-0.069 l -0.002,0 c 0.002,-0.002 0.13,-0.145 0.422,-0.403 0.88,-0.791 3.028,-2.354 5.682,-2.342 1.82,0.008 3.958,0.677 6.377,2.988 0.194,0.185 0.444,0.277 0.692,0.277 z"
       id="path28"
       inkscape:connector-curvature="0" /><path
       d="M 31.5,0 C 14.104,0 0,14.104 0,31.5 0,48.896 14.104,63 31.5,63 48.897,63 63,48.896 63,31.5 63,14.104 48.897,0 31.5,0 Z m 0,59 C 16.336,59 3.998,46.664 3.998,31.5 3.998,16.336 16.336,3.998 31.5,3.998 46.662,3.998 59,16.336 59,31.5 59,46.664 46.662,59 31.5,59 Z"
       id="path30"
       inkscape:connector-curvature="0" /><path
       d="m 36.137,10.58 -3.773,15.769 -4.006,-12.163 -3.8,1.251 6.21,18.856 c 0.271,0.821 1.038,1.373 1.897,1.373 0.029,0 0.059,0 0.088,-0.002 0.891,-0.037 1.652,-0.662 1.859,-1.531 L 40.495,9.567 36.605,8.635 36.137,10.58 Z"
       id="path32"
       inkscape:connector-curvature="0" /></g></svg>