<?xml version="1.0" encoding="UTF-8" standalone="no"?>
<svg
   xmlns:dc="http://purl.org/dc/elements/1.1/"
   xmlns:cc="http://creativecommons.org/ns#"
   xmlns:rdf="http://www.w3.org/1999/02/22-rdf-syntax-ns#"
   xmlns:svg="http://www.w3.org/2000/svg"
   xmlns="http://www.w3.org/2000/svg"
   xmlns:sodipodi="http://sodipodi.sourceforge.net/DTD/sodipodi-0.dtd"
   xmlns:inkscape="http://www.inkscape.org/namespaces/inkscape"
   version="1.1"
   x="0px"
   y="0px"
   viewBox="0 0 128 128"
   enable-background="new 0 0 128 128"
   xml:space="preserve"
   id="svg2"
   inkscape:version="0.91 r13725"
   sodipodi:docname="noun_924968_cc.svg"
   width="128"
   height="128"><metadata
     id="metadata14"><rdf:RDF><cc:Work
         rdf:about=""><dc:format>image/svg+xml</dc:format><dc:type
           rdf:resource="http://purl.org/dc/dcmitype/StillImage" /><dc:title></dc:title></cc:Work></rdf:RDF></metadata><defs
     id="defs12" /><sodipodi:namedview
     pagecolor="#ffffff"
     bordercolor="#666666"
     borderopacity="1"
     objecttolerance="10"
     gridtolerance="10"
     guidetolerance="10"
     inkscape:pageopacity="0"
     inkscape:pageshadow="2"
     inkscape:window-width="1855"
     inkscape:window-height="1056"
     id="namedview10"
     showgrid="false"
     inkscape:zoom="4.17193"
     inkscape:cx="39.29815"
     inkscape:cy="94.287182"
     inkscape:window-x="65"
     inkscape:window-y="24"
     inkscape:window-maximized="1"
     inkscape:current-layer="svg2" /><path
     style="fill:#000000"
     d="m 64,13.099609 c -10.6,0 -20.700781,3.201172 -29.300781,9.201172 C 21.099219,31.900781 13,47.4 13,64 c 0,28.1 22.9,50.90039 51,50.90039 l 0.199219,0 C 92.199219,114.80039 115,92 115,64 115,36 92.199609,13.199609 64.099609,13.099609 l -0.09961,0 z M 64.09961,15 64.19922,15 C 91.09922,15.1 113,37.1 113,64 c 0,26.9 -21.90078,48.80039 -48.80078,48.90039 l -0.09961,0 -0.09961,1 0,-1 C 37.000001,112.90039 15.000001,91 15.000001,64 c 0,-15.9 7.800391,-30.899609 20.900391,-40.099609 C 44.200392,18.100391 53.89961,15 64.09961,15 Z m -1.099609,2.099609 0,20.701172 1,0 0,-20.701172 -1,0 z m 1,20.701172 0,1 0.300781,0 c 6.8,0 13.398828,-1.000781 19.798828,-2.800781 l -0.298829,-0.900391 c -6.3,1.8 -12.9,2.701172 -19.5,2.701172 l -0.300781,0 z m 19.80078,-2.701172 c 0.3,-0.1 0.6,-0.198828 1,-0.298828 -2,-5.4 -4.501562,-10.700781 -7.601562,-15.800781 -0.5,-0.1 -0.898438,-0.300391 -1.398438,-0.400391 3.3,5.4 6,10.9 8,16.5 z M 63,37.800781 c -6.287499,-0.0998 -12.475754,-0.997745 -18.365234,-2.591797 2.095188,-5.7671 4.78197,-11.337648 8.064453,-16.708984 -0.5,0.1 -0.898438,0.200391 -1.398438,0.400391 -3.2,5.2 -5.701172,10.599609 -7.701172,16.099609 0.290595,0.09687 0.587269,0.194151 0.96875,0.291016 l -0.267578,0.808593 c 6,1.7 12.299219,2.701172 18.699219,2.701172 l 0,-1 z M 31.400391,30.199219 c -0.3,0.2 -0.500782,0.501172 -0.800782,0.701172 4,2 8.29961,3.7 12.59961,5 L 43.5,35 C 39.4,33.7 35.400391,32.199219 31.400391,30.199219 Z m 65.099609,0 c -3.8,1.9 -7.700781,3.501172 -11.800781,4.701172 L 85,35.800781 c 4.3,-1.2 8.400781,-2.90039 12.300781,-4.90039 -0.3,-0.3 -0.500781,-0.501172 -0.800781,-0.701172 z m -11.400391,5.601562 c -0.3,0.1 -0.6,0.198828 -1,0.298828 3,8.6 4.59961,17.600782 4.59961,26.800782 l 0,0.298828 0,0.701172 1,0 0,-0.701172 0,-0.298828 c 0,-9.3 -1.59961,-18.39961 -4.59961,-27.09961 z m -41.798828,0.09961 c -3,8.7 -4.601562,17.8 -4.601562,27 l 0,0.298828 0,0.701172 1,0 0,-0.59961 0,-0.300781 c 0,-9.2 1.601562,-18.100781 4.601562,-26.800781 -0.3,-0.1 -0.6,-0.198828 -1,-0.298828 z M 63,38.900391 63,64 l 1,0 0,-25.099609 -1,0 z M 64,64 l 0,1 24.699219,0 0,-1 L 64,64 Z m 0,1 -1,0 0,22.800781 c -6.5,0.200001 -12.800391,1.098828 -18.900391,2.798828 L 44.400391,91.5 C 50.400391,89.8 56.7,88.900781 63,88.800781 l 0,-0.90039 1,0 L 64,65 Z m 0,22.900391 0,1 0.300781,0 c 6.7,0 13.299219,0.998828 19.699219,2.798828 l 0.300781,-0.898438 c -6.5,-1.9 -13.2,-2.90039 -20,-2.90039 l -0.300781,0 z m 20.300781,2.90039 c 0.291128,0.09704 0.588188,0.19202 0.970703,0.289063 L 85,91.900391 c 4.2,1.3 8.400391,2.99961 12.400391,5.099609 0.2,-0.2 0.499218,-0.500781 0.699218,-0.800781 -4.091373,-2.095582 -8.381163,-3.89009 -12.771484,-5.189453 2.780887,-8.371636 4.271448,-16.942064 4.371094,-25.910157 l -1,0 c -0.2,8.9 -1.698438,17.401172 -4.398438,25.701172 z M 64,88.900391 l -1,0 0,21.999999 c 0.3,0 0.7,0.0996 1,0.0996 L 64,88.900391 Z M 44.099609,90.599609 C 41.399609,82.399609 39.899219,74 39.699219,65 l -1,0 c 0.2,9 1.70039,17.600391 4.40039,25.900391 0.3,-0.1 0.6,-0.200781 1,-0.300782 z M 38.699219,65 l 0,-1 L 17,64 l 0,1 21.699219,0 z m 1,0 L 63,65 l 0,-1 -23.300781,0 0,1 z m 50,-1 0,1 L 111,65 l 0,-1 -21.300781,0 z m -46.59961,27 c -4.6,1.200001 -8.999218,2.999219 -13.199218,5.199219 0.2,0.3 0.499218,0.500782 0.699218,0.800781 4.1,-2.099999 8.400782,-3.799609 12.800782,-5.099609 L 43.099609,91 Z m 0.300782,0.900391 c 2.1,6 4.799218,11.798829 8.199218,17.298829 0.5,0.1 0.900391,0.20039 1.400391,0.40039 -3.6,-5.7 -6.399609,-11.700001 -8.599609,-18.000001 -0.3,0.100001 -0.6,0.200782 -1,0.300782 z m 40.5,-0.201172 C 81.800391,97.899219 79,103.9 75.5,109.5 c 0.5,-0.1 1.000391,-0.30039 1.400391,-0.40039 3.3,-5.4 6,-11.199609 8,-17.09961 -0.3,-0.1 -0.6,-0.200781 -1,-0.300781 z"
     id="path4"
     inkscape:connector-curvature="0" /></svg>