<?xml version="1.0" encoding="UTF-8" standalone="no"?>
<svg
   xmlns:dc="http://purl.org/dc/elements/1.1/"
   xmlns:cc="http://creativecommons.org/ns#"
   xmlns:rdf="http://www.w3.org/1999/02/22-rdf-syntax-ns#"
   xmlns:svg="http://www.w3.org/2000/svg"
   xmlns="http://www.w3.org/2000/svg"
   xmlns:sodipodi="http://sodipodi.sourceforge.net/DTD/sodipodi-0.dtd"
   xmlns:inkscape="http://www.inkscape.org/namespaces/inkscape"
   version="1.1"
   x="0px"
   y="0px"
   viewBox="0 0 100 100"
   enable-background="new 0 0 128 128"
   xml:space="preserve"
   id="svg2"
   inkscape:version="0.91 r13725"
   sodipodi:docname="world (copy).svg"
   width="100"
   height="100"><metadata
     id="metadata14"><rdf:RDF><cc:Work
         rdf:about=""><dc:format>image/svg+xml</dc:format><dc:type
           rdf:resource="http://purl.org/dc/dcmitype/StillImage" /><dc:title></dc:title></cc:Work></rdf:RDF></metadata><defs
     id="defs12" /><sodipodi:namedview
     pagecolor="#ffffff"
     bordercolor="#666666"
     borderopacity="1"
     objecttolerance="10"
     gridtolerance="10"
     guidetolerance="10"
     inkscape:pageopacity="0"
     inkscape:pageshadow="2"
     inkscape:window-width="1855"
     inkscape:window-height="1056"
     id="namedview10"
     showgrid="false"
     inkscape:zoom="4.17193"
     inkscape:cx="9.695544"
     inkscape:cy="65.523516"
     inkscape:window-x="65"
     inkscape:window-y="24"
     inkscape:window-maximized="1"
     inkscape:current-layer="svg2" /><path
     style="fill:#000000"
     d="m 50,10.724924 c -8.17903,0 -15.972859,2.470045 -22.608675,7.099685 C 16.897476,25.232032 10.648065,37.191331 10.648065,50 c 0,21.682145 17.66979,39.275075 39.351935,39.275075 l 0.153719,0 C 71.758703,89.197915 89.351935,71.604984 89.351935,50 c 0,-21.604983 -17.592932,-39.197915 -39.275076,-39.275075 l -0.07686,0 z m 0.07686,1.466354 0.07686,0 C 70.909937,12.268438 87.808723,29.243784 87.808723,50 c 0,20.756218 -16.898786,37.654702 -37.655003,37.731863 l -0.07686,0 L 50,88.503469 50,87.731863 C 29.166623,87.731863 12.191279,70.833377 12.191279,50 c 0,-12.268544 6.018833,-23.842341 16.126879,-30.941121 6.404334,-4.475319 13.888315,-6.867601 21.758702,-6.867601 z m -0.848466,1.620073 0,15.97316 0.771607,0 0,-15.97316 -0.771607,0 z m 0.771607,15.97316 0,0.771607 0.232084,0 c 5.246925,0 10.338624,-0.77221 15.276906,-2.161101 l -0.230578,-0.694748 c -4.861122,1.388892 -9.953725,2.084242 -15.046328,2.084242 l -0.232085,0 z m 15.278412,-2.084242 c 0.231482,-0.07716 0.462964,-0.153417 0.771606,-0.230578 -1.543213,-4.166675 -3.473435,-8.256793 -5.865415,-12.191987 -0.385803,-0.07716 -0.693241,-0.231783 -1.079044,-0.308944 2.546302,4.166676 4.629639,8.410512 6.172853,12.731509 z m -16.05002,2.084242 c -4.851475,-0.07701 -9.626373,-0.769867 -14.170735,-1.999848 1.616661,-4.449932 3.6898,-8.748203 6.222585,-12.892762 -0.385803,0.07716 -0.693241,0.154624 -1.079044,0.308945 -2.469141,4.012354 -4.399062,8.178728 -5.942275,12.422564 0.224225,0.07475 0.453141,0.149808 0.747494,0.22455 l -0.206465,0.623916 c 4.62964,1.311731 9.490158,2.084242 14.42844,2.084242 l 0,-0.771607 z M 24.845928,23.919096 c -0.231482,0.154321 -0.386407,0.386707 -0.617889,0.541029 3.086426,1.543213 6.404033,2.854944 9.721942,3.858033 l 0.232084,-0.694748 c -3.163587,-1.003089 -6.249711,-2.161101 -9.336137,-3.704314 z m 50.231285,0 c -2.932105,1.466052 -5.941973,2.701527 -9.10556,3.627455 l 0.232085,0.694747 c 3.317908,-0.925928 6.482098,-2.23796 9.491363,-3.781173 -0.231482,-0.231482 -0.386406,-0.386708 -0.617888,-0.541029 z m -8.796616,4.322202 c -0.231482,0.07716 -0.462964,0.153417 -0.771607,0.230578 2.31482,6.635816 3.54909,13.580878 3.54909,20.679658 l 0,0.230579 0,0.541028 0.771606,0 0,-0.541029 0,-0.230578 c 0,-7.175941 -1.234269,-14.197259 -3.549089,-20.910236 z m -32.25225,0.07686 c -2.31482,6.712977 -3.550596,13.734596 -3.550596,20.833376 l 0,0.230579 0,0.541028 0.771607,0 0,-0.462663 0,-0.232085 c 0,-7.09878 1.235775,-13.966681 3.550595,-20.679658 -0.231482,-0.07716 -0.462964,-0.153417 -0.771606,-0.230577 z m 15.200046,2.31482 0,19.367022 L 50,50 l 0,-19.367022 -0.771607,0 z M 50,50 l 0,0.771608 19.05808,0 L 69.05808,50 50,50 Z m 0,0.771608 -0.771607,0 0,17.593232 c -5.015442,0.154321 -9.876865,0.847863 -14.583665,2.159593 l 0.232085,0.694748 c 4.629639,-1.311732 9.490459,-2.005575 14.35158,-2.082735 l 0,-0.694747 0.771607,0 0,-17.670091 z m 0,17.670091 0,0.771606 0.232085,0 c 5.169764,0 10.261764,0.770702 15.200046,2.159594 l 0.232085,-0.69324 c -5.015443,-1.466053 -10.185207,-2.23796 -15.432131,-2.23796 l -0.232085,0 z m 15.664216,2.23796 c 0.224636,0.07488 0.45385,0.148164 0.749001,0.223044 l -0.209479,0.625422 c 3.240747,1.003088 6.481797,2.314519 9.568223,3.934892 0.154321,-0.154322 0.3852,-0.386406 0.539521,-0.617888 -3.15693,-1.616965 -6.46696,-3.001619 -9.854561,-4.004216 2.145751,-6.459609 3.295878,-13.072608 3.372765,-19.992447 l -0.771606,0 c -0.154322,6.867298 -1.310526,13.426858 -3.393864,19.831193 z M 50,69.213305 l -0.771607,0 0,16.975344 c 0.231482,0 0.540125,0.07685 0.771607,0.07685 L 50,69.213303 Z M 34.644728,70.524433 C 32.56139,64.197259 31.403679,57.716066 31.249358,50.771608 l -0.771607,0 c 0.154321,6.944458 1.312032,13.580576 3.39537,19.98491 0.231482,-0.07716 0.462964,-0.154923 0.771607,-0.232085 z m -4.166977,-19.752825 0,-0.771608 -16.74326,0 0,0.771608 16.74326,0 z m 0.771607,0 17.979035,0 0,-0.771608 -17.979035,0 0,0.771608 z M 69.829686,50 l 0,0.771608 16.435823,0 0,-0.771608 -16.435823,0 z M 33.873121,70.833377 c -3.54939,0.925929 -6.943856,2.314217 -10.184603,4.011752 0.154321,0.231482 0.3852,0.386408 0.539521,0.617889 3.163587,-1.620373 6.482098,-2.931804 9.877167,-3.934892 l -0.232085,-0.694748 z m 0.232085,0.694748 c 1.620374,4.629639 3.703108,9.104054 6.326571,13.34789 0.385803,0.07716 0.694747,0.154622 1.080551,0.308944 -2.777784,-4.398158 -4.937981,-9.027798 -6.635515,-13.888919 -0.231482,0.07716 -0.462964,0.154924 -0.771607,0.232085 z m 31.250066,-0.155226 c -1.620373,4.783961 -3.781174,9.414204 -6.481797,13.7352 0.385804,-0.07716 0.771909,-0.231782 1.080551,-0.308944 2.546302,-4.166675 4.62964,-8.641691 6.172853,-13.194171 -0.231482,-0.07716 -0.462964,-0.154923 -0.771607,-0.232084 z"
     id="path4"
     inkscape:connector-curvature="0" /></svg>