<?xml version="1.0" standalone="no"?>
<!DOCTYPE svg PUBLIC "-//W3C//DTD SVG 20010904//EN"
 "http://www.w3.org/TR/2001/REC-SVG-20010904/DTD/svg10.dtd">
<svg version="1.0" xmlns="http://www.w3.org/2000/svg"
 width="700.000000pt" height="700.000000pt" viewBox="0 0 700.000000 700.000000"
 preserveAspectRatio="xMidYMid meet">
<metadata>
Created by potrace 1.11, written by Peter Selinger 2001-2013
</metadata>
<g transform="translate(0.000000,700.000000) scale(0.100000,-0.100000)"
fill="#000000" stroke="none">
<path d="M410 6990 c-183 -26 -322 -144 -388 -329 -15 -42 -17 -295 -19 -3136
-2 -2065 0 -3107 7 -3144 34 -185 193 -340 380 -371 45 -7 998 -10 3150 -8
2864 3 3088 4 3132 20 149 53 269 178 309 323 12 42 14 533 14 3155 0 3002 -1
3107 -19 3160 -51 151 -152 255 -304 313 l-57 22 -3075 1 c-1691 1 -3100 -2
-3130 -6z m4190 -3474 c539 -1302 982 -2377 985 -2387 6 -19 -37 -19 -2084
-19 -1150 0 -2091 3 -2091 6 0 3 466 1071 1036 2372 570 1302 1039 2375 1042
2385 4 15 14 17 69 15 l65 -3 978 -2369z"/>
<path d="M2625 3124 c-412 -937 -751 -1708 -753 -1714 -3 -7 443 -10 1448 -10
1158 0 1451 3 1447 13 -2 6 -286 703 -630 1547 -344 844 -655 1609 -692 1700
-37 91 -68 166 -69 166 0 1 -338 -765 -751 -1702z"/>
</g>
</svg>
